# xmcd
#
# Track frame offsets:
# 150
# 10734
# 21516
# 35507
# 50752
# 66665
# 81126
# 93068
# 105094
# 116452
# 128770
# 143651
# 161523
# 175024
# 188230
# 203732
# 218052
# 233315
# 247765
# 262552
#
# Disc length: 3693 seconds
#
#
# Revision: 0
# Processed by: cddbd v1.5.1PL2 Copyright (c) Steve Scherf et al.
# Submitted via: FreeRIP 2.944 
#
DISCID=f40e6b14
DTITLE=Tammy Wynette - OnlyLonelySometimes
DYEAR=1900
DGENRE=Country
TTITLE0=They Call It Making Love
TTITLE1=We'll Talk About It Later
TTITLE2=Somewhere
TTITLE3=Mama, Your Little Girl Fell
TTITLE4=I'm Not Ready Yet
TTITLE5=No One Else in the World
TTITLE6=You Don't Know the Half Of It
TTITLE7=I L-O-V-E  Y-O-U
TTITLE8=You Never Cross My Mind
TTITLE9=Let Me Be Me
TTITLE10=He Was There (When I Needed You)
TTITLE11=I'll Be Thinking of You
TTITLE12=You Never Knew
TTITLE13=Come With Me
TTITLE14=You Needed Me
TTITLE15=Starting Over
TTITLE16=Out Of the Spotlight
TTITLE17=Only the Names Have Been Changed
TTITLE18=When You Love Me
TTITLE19=Ozark Mountain Lullaby
EXTD=
EXTT0=
EXTT1=
EXTT2=
EXTT3=
EXTT4=
EXTT5=
EXTT6=
EXTT7=
EXTT8=
EXTT9=
EXTT10=
EXTT11=
EXTT12=
EXTT13=
EXTT14=
EXTT15=
EXTT16=
EXTT17=
EXTT18=
EXTT19=
PLAYORDER=
